<svg xmlns="http://www.w3.org/2000/svg" width="512" height="512" viewBox="0 0 512 512" fill="none"><title>UNYTs favicon</title><defs><linearGradient id="fav2-brand-grad" x1="0%" y1="0%" x2="100%" y2="0%"><stop offset="0.0%" stop-color="#00D2E6"/><stop offset="17.0%" stop-color="#0078FF"/><stop offset="39.0%" stop-color="#B92DFF"/><stop offset="60.0%" stop-color="#FF3E94"/><stop offset="82.0%" stop-color="#FF8A00"/><stop offset="100.0%" stop-color="#F4C500"/></linearGradient><linearGradient id="fav2-white-highlight" x1="0%" y1="0%" x2="0%" y2="100%"><stop offset="0%" stop-color="#FFFFFF" stop-opacity="0.18"/><stop offset="45%" stop-color="#FFFFFF" stop-opacity="0.05"/><stop offset="100%" stop-color="#FFFFFF" stop-opacity="0"/></linearGradient><radialGradient id="fav2-bg-grad" cx="82%" cy="12%" r="95%"><stop offset="0%" stop-color="#18050E" stop-opacity="0.95"/><stop offset="58%" stop-color="#020204" stop-opacity="1"/><stop offset="100%" stop-color="#000000" stop-opacity="1"/></radialGradient></defs><rect x="32" y="32" width="448" height="448" rx="104" fill="url(#fav2-bg-grad)"/><defs><clipPath id="fav2-u-clip"><path d="M722 -24C1101 -24 1349 195 1349 524V1490H998V553C998 395 888 282 722 282C557 282 445 396 445 553V1490H94V524C94 195 341 -24 722 -24Z" transform="translate(91.50,398.93) scale(0.211361,-0.211361)"/></clipPath></defs><g clip-path="url(#fav2-u-clip)"><rect x="111.37" y="84.00" width="265.26" height="320.00" fill="url(#fav2-brand-grad)"/><circle cx="137.90" cy="346.40" r="58.36" fill="#00F0E0" opacity="0.450"/><circle cx="175.03" cy="167.20" r="47.75" fill="#405BFF" opacity="0.350"/><circle cx="222.78" cy="282.40" r="53.05" fill="#8B2CFF" opacity="0.300"/><circle cx="265.22" cy="173.60" r="47.75" fill="#FF2E8D" opacity="0.340"/><circle cx="323.58" cy="276.00" r="58.36" fill="#FFA000" opacity="0.340"/><circle cx="355.41" cy="346.40" r="42.44" fill="#12D7A4" opacity="0.280"/><rect x="111.37" y="84.00" width="265.26" height="320.00" fill="url(#fav2-white-highlight)"/></g><path d="M388 90h44a14 14 0 0 1 14 14v44l-58-58Z" fill="#F34E98" opacity="0.92"/></svg>