<svg xmlns="http://www.w3.org/2000/svg" width="320" height="320" viewBox="0 0 320 320" fill="none">
  <title>UNYTs empty state motif</title>
  <rect x="28" y="28" width="264" height="264" rx="56" fill="url(#empty-bg)" />
  <path d="M124 82C84.2355 82 56 110.235 56 150V242H92V158C92 130.386 114.386 108 142 108C169.614 108 192 130.386 192 158V242H228V150C228 110.235 199.765 82 160 82H124Z" stroke="url(#empty-line)" stroke-width="16" stroke-linecap="round" stroke-linejoin="round" />
  <path d="M208 82H236C244.837 82 252 89.1634 252 98V126" stroke="#F34E98" stroke-width="10" stroke-linecap="round" stroke-linejoin="round" opacity="0.82" />
  <circle cx="93" cy="238" r="11" fill="#4F7CFF" opacity="0.55" />
  <circle cx="226" cy="104" r="10" fill="#F34E98" opacity="0.48" />
  <defs>
    <radialGradient id="empty-bg" cx="50%" cy="0%" r="100%">
      <stop offset="0%" stop-color="#13203D" />
      <stop offset="100%" stop-color="#08111F" />
    </radialGradient>
    <linearGradient id="empty-line" x1="56" y1="82" x2="228" y2="242" gradientUnits="userSpaceOnUse">
      <stop stop-color="#84CCFF" />
      <stop offset="0.5" stop-color="#4F7CFF" />
      <stop offset="1" stop-color="#2242A4" />
    </linearGradient>
  </defs>
</svg>

