<svg xmlns="http://www.w3.org/2000/svg" width="900" height="900" viewBox="0 0 900 900" fill="none">
  <title>UNYTs hero halo</title>
  <defs>
    <radialGradient id="hero-glow" cx="50%" cy="50%" r="50%">
      <stop offset="0%" stop-color="#4F7CFF" stop-opacity="0.34" />
      <stop offset="45%" stop-color="#4F7CFF" stop-opacity="0.12" />
      <stop offset="100%" stop-color="#4F7CFF" stop-opacity="0" />
    </radialGradient>
    <linearGradient id="hero-line" x1="134" y1="144" x2="766" y2="768" gradientUnits="userSpaceOnUse">
      <stop stop-color="#83CEFF" />
      <stop offset="0.55" stop-color="#4F7CFF" />
      <stop offset="1" stop-color="#1B338C" />
    </linearGradient>
  </defs>
  <circle cx="450" cy="450" r="320" fill="url(#hero-glow)" />
  <circle cx="450" cy="450" r="278" stroke="url(#hero-line)" stroke-width="2" opacity="0.2" />
  <circle cx="450" cy="450" r="228" stroke="url(#hero-line)" stroke-width="2" opacity="0.16" />
  <circle cx="450" cy="450" r="180" stroke="url(#hero-line)" stroke-width="2" opacity="0.12" />
  <path d="M364 208C289.964 208 234 263.964 234 338V592H292V356C292 301.324 336.324 257 391 257C445.676 257 490 301.324 490 356V592H548V338C548 263.964 492.036 208 418 208H364Z" stroke="url(#hero-line)" stroke-width="20" stroke-linecap="round" stroke-linejoin="round" opacity="0.36" />
  <path d="M534 232H592C605.255 232 616 242.745 616 256V314" stroke="#F34E98" stroke-width="12" stroke-linecap="round" stroke-linejoin="round" opacity="0.78" />
</svg>

