<svg xmlns="http://www.w3.org/2000/svg" width="2200" height="520" viewBox="0 0 2200 520" fill="none"><title>UNYTs header logo primary</title><defs><linearGradient id="brand-brand-grad" x1="0%" y1="0%" x2="100%" y2="0%"><stop offset="0.0%" stop-color="#00D2E6"/><stop offset="17.0%" stop-color="#0078FF"/><stop offset="39.0%" stop-color="#B92DFF"/><stop offset="60.0%" stop-color="#FF3E94"/><stop offset="82.0%" stop-color="#FF8A00"/><stop offset="100.0%" stop-color="#F4C500"/></linearGradient><linearGradient id="brand-white-highlight" x1="0%" y1="0%" x2="0%" y2="100%"><stop offset="0%" stop-color="#FFFFFF" stop-opacity="0.18"/><stop offset="45%" stop-color="#FFFFFF" stop-opacity="0.05"/><stop offset="100%" stop-color="#FFFFFF" stop-opacity="0"/></linearGradient></defs><defs><clipPath id="clip-gradient"><path d="M722 -24C1101 -24 1349 195 1349 524V1490H998V553C998 395 888 282 722 282C557 282 445 396 445 553V1490H94V524C94 195 341 -24 722 -24Z" transform="translate(120.00,392.00) scale(0.245000,-0.245000)"/></clipPath></defs><g clip-path="url(#clip-gradient)"><rect x="143.03" y="26.95" width="307.48" height="370.93" fill="url(#brand-brand-grad)"/><circle cx="173.78" cy="331.11" r="67.64" fill="#00F0E0" opacity="0.450"/><circle cx="216.82" cy="123.39" r="55.35" fill="#405BFF" opacity="0.350"/><circle cx="272.17" cy="256.93" r="61.50" fill="#8B2CFF" opacity="0.300"/><circle cx="321.37" cy="130.81" r="55.35" fill="#FF2E8D" opacity="0.340"/><circle cx="389.01" cy="249.51" r="67.64" fill="#FFA000" opacity="0.340"/><circle cx="425.91" cy="331.11" r="49.20" fill="#12D7A4" opacity="0.280"/><rect x="143.03" y="26.95" width="307.48" height="370.93" fill="url(#brand-white-highlight)"/></g><path d="M96 0H456V621C456 683 455 806 450 951C527 811 598 689 641 620L1029 0H1402V1490H1042V844C1042 777 1044 656 1047 538C989 645 926 757 891 813L468 1490H96Z" fill="#F4F6FB" transform="translate(471.08,392.00) scale(0.245000,-0.245000)"/><path d="M558 0H907V533L1448 1490H1039L815 1057C787 1003 760 949 735 895C708 949 680 1003 651 1057L416 1490H5L558 533Z" fill="#F4F6FB" transform="translate(835.64,392.00) scale(0.245000,-0.245000)"/><path d="M42 1184H481V0H841V1184H1279V1490H42Z" fill="#F4F6FB" transform="translate(1189.18,392.00) scale(0.245000,-0.245000)"/><path d="M562 -26C858 -26 1058 120 1058 337C1058 494 956 585 739 625L527 664C454 678 413 707 413 751C413 803 465 842 555 842C646 842 712 787 714 713H1031C1025 938 838 1078 543 1078C249 1078 70 944 70 735C70 568 181 461 389 424L580 390C664 375 708 347 708 301C708 248 652 211 557 211C456 211 395 260 385 338H46C65 113 270 -26 562 -26Z" fill="#F34E98" transform="translate(1510.38,388.00) scale(0.301350,-0.301350)"/></svg>